<svg width="8" height="4" viewBox="0 0 8 4" fill="none" xmlns="http://www.w3.org/2000/svg">
<path d="M0.519445 0.0254201C0.622418 0.0253467 0.722435 0.0627138 0.803475 0.131537L3.99998 2.83972L7.19649 0.131619C7.29292 0.0499261 7.41535 0.0130766 7.53686 0.0291782C7.65837 0.0452798 7.769 0.113013 7.84441 0.217477C7.91981 0.321942 7.95383 0.45458 7.93897 0.586214C7.9241 0.717847 7.86158 0.837693 7.76515 0.919386L4.28431 3.86829C4.20311 3.93702 4.10302 3.97437 3.99997 3.97437C3.89693 3.97437 3.79684 3.93702 3.71564 3.86829L0.234813 0.919304C0.159106 0.855173 0.103766 0.767041 0.0765149 0.667202C0.0492632 0.567364 0.0514604 0.460799 0.0827977 0.362378C0.114135 0.263957 0.173051 0.178588 0.251324 0.118182C0.329598 0.0577764 0.423326 0.0253479 0.519429 0.0254201L0.519445 0.0254201Z" fill="#0092FF"/>
</svg>
