<svg width="18" height="14" fill="none" xmlns="http://www.w3.org/2000/svg"><path d="M15 13.5H3C1.6 13.5.5 12.4.5 11V3C.5 1.6 1.6.5 3 .5h12c1.4 0 2.5 1.1 2.5 2.5v8c0 1.4-1.1 2.5-2.5 2.5zM3 1.5c-.8 0-1.5.7-1.5 1.5v8c0 .8.7 1.5 1.5 1.5h12c.8 0 1.5-.7 1.5-1.5V3c0-.8-.7-1.5-1.5-1.5H3z" fill="#316193"/><path d="M17 9.9c-2.8 0-4.4-.9-5.8-1.6C10 7.6 8.8 7 6.9 7 3.7 7 1.4 9.7 1.4 9.7c-.1.1-.2.2-.4.2l-.4-.8C.7 9 3.2 6 6.9 6c2.2 0 3.5.7 4.8 1.4 1.3.7 2.7 1.5 5.3 1.5v1zm-3.5-3.5c-.8 0-1.5-.7-1.5-1.5s.7-1.5 1.5-1.5 1.5.7 1.5 1.5-.7 1.5-1.5 1.5zm0-2c-.3 0-.5.2-.5.5s.2.5.5.5.5-.2.5-.5-.2-.5-.5-.5z" fill="#316193"/></svg>