<svg width="16" height="16" fill="none" xmlns="http://www.w3.org/2000/svg"><path d="M13.5 15.5h-11C1.1 15.5 0 14.4 0 13V4c0-1.4 1.1-2.5 2.5-2.5h11C14.9 1.5 16 2.6 16 4v9c0 1.4-1.1 2.5-2.5 2.5zm-11-13C1.7 2.5 1 3.2 1 4v9c0 .8.7 1.5 1.5 1.5h11c.8 0 1.5-.7 1.5-1.5V4c0-.8-.7-1.5-1.5-1.5h-11z" fill="#316193"/><path d="M5 3.5c-.3 0-.5-.2-.5-.5V1c0-.3.2-.5.5-.5s.5.2.5.5v2c0 .3-.2.5-.5.5zm6 0c-.3 0-.5-.2-.5-.5V1c0-.3.2-.5.5-.5s.5.2.5.5v2c0 .3-.2.5-.5.5zm4 3H1C.7 6.5.5 6.3.5 6s.2-.5.5-.5h14c.3 0 .5.2.5.5s-.2.5-.5.5zM3.5 13c-.3 0-.5-.1-.7-.3-.2-.2-.3-.5-.3-.7 0-.3.1-.5.3-.7.4-.4 1-.4 1.4 0 .2.2.3.5.3.7 0 .2-.1.5-.3.7-.2.2-.4.3-.7.3zm0-3c-.3 0-.5-.1-.7-.3-.2-.2-.3-.4-.3-.7 0-.3.1-.5.3-.7.4-.4 1-.4 1.4 0 .2.2.3.5.3.7 0 .2-.1.5-.3.7-.2.2-.4.3-.7.3zm3 3c-.3 0-.5-.1-.7-.3-.2-.2-.3-.5-.3-.7 0-.2.1-.5.3-.7.4-.4 1-.4 1.4 0 .2.2.3.5.3.7 0 .2-.1.5-.3.7-.2.2-.4.3-.7.3zm0-3c-.3 0-.5-.1-.7-.3-.2-.2-.3-.5-.3-.7 0-.2.1-.5.3-.7.4-.4 1-.4 1.4 0 .2.2.3.5.3.7 0 .2-.1.5-.3.7-.2.2-.4.3-.7.3zm3 3c-.3 0-.5-.1-.7-.3-.2-.2-.3-.5-.3-.7 0-.2.1-.5.3-.7.4-.4 1-.4 1.4 0 .2.2.3.4.3.7 0 .3-.1.5-.3.7-.2.2-.4.3-.7.3zm0-3c-.3 0-.5-.1-.7-.3-.2-.2-.3-.5-.3-.7 0-.2.1-.5.3-.7.4-.4 1-.4 1.4 0 .2.2.3.5.3.7 0 .3-.1.5-.3.7-.2.2-.4.3-.7.3zm3 3c-.3 0-.5-.1-.7-.3-.2-.2-.3-.5-.3-.7 0-.3.1-.5.3-.7.4-.4 1-.4 1.4 0 .2.2.3.5.3.7 0 .2-.1.5-.3.7-.2.2-.4.3-.7.3zm0-3c-.3 0-.5-.1-.7-.3-.2-.2-.3-.5-.3-.7 0-.2.1-.5.3-.7.4-.4 1-.4 1.4 0 .2.2.3.5.3.7 0 .3-.1.5-.3.7-.2.2-.4.3-.7.3z" fill="#316193"/></svg>