<svg width="22" height="14" fill="none" xmlns="http://www.w3.org/2000/svg"><path d="M16.175 13.9H1.225c-.345 0-.575-.23-.575-.575v-8.05c0-.345.23-.575.575-.575h14.95c.345 0 .575.23.575.575v8.05c0 .345-.23.575-.575.575zM1.8 12.75h13.8v-6.9H1.8v6.9z" fill="#316193"/><path d="M2.95 5.275v-2.3c0-.345.23-.575.575-.575h14.95c.345 0 .575.23.575.575v8.05c0 .345-.23.575-.575.575h-2.3v-1.15H17.9v-6.9H4.1v1.725H2.95z" fill="#316193"/><path d="M8.7 12.175A2.847 2.847 0 0 1 5.825 9.3 2.847 2.847 0 0 1 8.7 6.425 2.847 2.847 0 0 1 11.575 9.3 2.847 2.847 0 0 1 8.7 12.175zm0-4.6c-.92 0-1.725.805-1.725 1.725s.805 1.725 1.725 1.725 1.725-.805 1.725-1.725S9.62 7.575 8.7 7.575zm-3.45-4.6v-2.3C5.25.33 5.48.1 5.825.1h14.95c.345 0 .575.23.575.575v8.05c0 .345-.23.575-.575.575h-2.3V8.15H20.2v-6.9H6.4v1.725H5.25z" fill="#316193"/></svg>