<svg width="216" height="50" fill="none" xmlns="http://www.w3.org/2000/svg"><path d="M9.603 38.178c-.234-7.594-1.379-13.809-1.916-15.982h25.234c-.421 7.524-2.477 14.463-3.505 17.126-.047.094-.117.14-.234.14l-19.369-1.05c-.117-.024-.21-.118-.21-.234z" fill="url(#paint0_linear)"/><path d="M9.58 38.178c-.07-1.332-.14-2.687-.258-4.02a115.775 115.775 0 0 0-.42-3.995 73.877 73.877 0 0 0-.584-3.971c-.117-.655-.234-1.332-.374-1.986l-.21-.982-.117-.49-.07-.234c0-.093-.07-.14-.024-.257a.617.617 0 0 1 .117-.14c.07-.047.14-.024.187-.024h2.944l3.154.024 6.309.023 12.616.07c.024 0 .024 0 .024.024-.187 3.13-.631 6.238-1.262 9.299a59.031 59.031 0 0 1-1.145 4.556c-.21.747-.444 1.495-.7 2.243l-.188.56-.093.28-.047.141-.023.07c0 .023-.024.047-.047.07-.07.094-.233.094-.304.094l-.303-.024-.584-.023-9.37-.537-4.696-.257-2.336-.14-1.168-.07-.585-.024c-.093 0-.187 0-.303-.023a.317.317 0 0 1-.14-.258zm.046 0c0 .093.07.163.14.187.094.023.187.023.28.023l.585.023 1.168.07 2.337.14 4.696.258 9.392.514.584.023.304.023h.14c.047-.023.07-.047.094-.07 0-.023.023-.023.023-.047l.023-.07.047-.14.094-.28.187-.561c.257-.748.49-1.495.7-2.243a59.022 59.022 0 0 0 1.145-4.556c.655-3.06 1.122-6.168 1.309-9.3l.023.024-12.617.07-6.308.024-3.154.023H7.874c-.07 0-.14.023-.187-.023l.117-.14c.093.07.07.163.093.233l.047.257.093.49c.07.328.14.655.187.982.117.654.234 1.332.327 1.986.21 1.332.374 2.664.514 3.995.328 2.71.514 5.398.561 8.085z" fill="url(#paint1_linear)"/><path d="M19.16 11.005c-2.524-2.033-8.435-4.346-7.617 1.075.91 5.981 1.215-4.253 7.616-1.075z" fill="#002FA7"/><path d="M19.065 10.958c-.046 0-.07 0-.116-.023a63.561 63.561 0 0 0-.094-.094c-.023-.047-.093-.047-.14-.093l-.14-.094-.561-.35c-.374-.21-.771-.444-1.168-.631-.795-.374-1.636-.701-2.5-.841a3.512 3.512 0 0 0-1.309.023c-.42.094-.817.327-1.074.678-.257.35-.374.794-.42 1.238-.024.444 0 .888.07 1.332.07.444.14.888.256 1.308.024.117.07.21.094.304.046.093.093.21.163.234.07.046.14-.024.234-.094.07-.07.14-.163.21-.257.49-.724.958-1.519 1.612-2.15.631-.63 1.496-1.098 2.43-1.144a4.39 4.39 0 0 1 1.355.14c.21.047.444.117.655.21l.303.117c.047.023.047.023.07.07 0 .024.024.07.07.117zm.187.117c-.07 0-.14 0-.21-.024a2.939 2.939 0 0 1-.234-.07l-.303-.117c-.21-.07-.42-.163-.631-.21a4.85 4.85 0 0 0-1.285-.163c-.865.046-1.682.444-2.313 1.051-.655.607-1.098 1.379-1.612 2.103-.07.093-.14.187-.21.257-.047.047-.094.07-.14.117-.048.023-.141.046-.211 0-.14-.07-.164-.187-.21-.304-.047-.117-.07-.21-.117-.327-.117-.444-.187-.888-.257-1.309-.07-.42-.117-.887-.07-1.331.046-.444.163-.912.444-1.262.28-.374.7-.608 1.121-.701.444-.093.888-.093 1.355-.047.888.117 1.753.42 2.57.795.398.187.795.397 1.169.654.186.117.373.257.537.397l.14.094c.047.023.07.093.14.093.047.023.117.047.187.117.047.07.094.14.14.187z" fill="#5D6AAE"/><path d="M19.743 11.542c-.257-7.593 9.953-13.154 8.621-1.378-.49 4.556.748-10.444-8.621 1.378z" fill="#002FA7"/><path d="M19.72 11.659a4.927 4.927 0 0 1-.047-.608c0-.21.047-.373.07-.537.047-.35.117-.678.187-1.028a11.46 11.46 0 0 1 .677-1.963c.585-1.238 1.426-2.406 2.524-3.27.56-.421 1.168-.772 1.869-.935.187-.024.35-.07.537-.07h.28l.281.023.14.023.14.047.258.07c.093.047.163.07.233.117s.164.07.234.14c.607.42.958 1.075 1.191 1.753.117.327.187.677.257 1.028.024.163.047.35.07.514.024.163.047.35.047.514.024.35.024.7.024 1.051l-.024.514-.046.514c-.024.35-.047.701-.094 1.028 0 .094-.023.164-.047.257 0 .047-.023.094-.023.14 0 .024 0 .024-.023.047 0 0-.024.023-.024.047 0 .023-.023.023-.047.046 0 0-.07.047-.116.024-.024 0-.094-.024-.094-.047l-.023-.023c0-.024-.024-.024-.024-.047s-.023-.023-.023-.047a4.656 4.656 0 0 1-.093-.514 9.381 9.381 0 0 0-.538-1.962c-.257-.608-.654-1.192-1.261-1.426-.304-.116-.631-.116-.935-.07-.327.07-.63.187-.935.327-.584.304-1.145.725-1.659 1.192-.514.444-1.004.935-1.448 1.449-.234.257-.467.514-.678.77l-.373.468c-.047.07-.094.117-.187.234-.07.07-.187.14-.257.21zm.07-.234c.023-.07.023-.14.046-.187.024-.046.094-.117.14-.187l.328-.397c.21-.257.444-.537.677-.794.468-.514.935-1.028 1.472-1.495.514-.468 1.075-.912 1.706-1.239a3.707 3.707 0 0 1 1.005-.374c.35-.07.747-.07 1.098.07.35.14.654.374.887.655.234.28.398.607.538.934.28.654.444 1.332.56 2.033.024.163.047.35.094.49v.024l-.023-.023s-.047-.047-.07-.024a.53.53 0 0 0-.094.024l-.023.023v-.023c0-.024.023-.07.023-.117l.047-.257c.047-.35.07-.678.117-1.028l.046-.514.024-.514c.023-.35 0-.678 0-1.028 0-.164-.024-.35-.047-.514-.023-.164-.023-.327-.07-.514-.07-.327-.117-.678-.234-.982-.21-.63-.56-1.238-1.074-1.635s-1.239-.467-1.87-.35a5.03 5.03 0 0 0-1.845.817c-1.122.794-2.01 1.916-2.594 3.154A9.675 9.675 0 0 0 20 9.416c-.047.35-.117.678-.117 1.028 0 .163-.023.35 0 .49-.047.21-.07.351-.093.491z" fill="#5D6AAE"/><path d="M35.825 9.907c-8.972 2.64-28.505 5.77-31.753 6.238a.234.234 0 0 0-.187.304l1.239 3.621c.046.117.14.164.257.164l30.303-4.276c.117-.023.187-.117.21-.234l.234-5.607c0-.14-.14-.257-.303-.21z" fill="url(#paint2_linear)"/><path d="M35.871 10.023l-.187.07c-.07 0-.116.024-.186.047l-.374.094-.748.163c-.514.117-1.005.234-1.495.374-.257.07-.49.14-.748.21-.257.07-.514.094-.748.164-.257.07-.514.117-.747.187-.257.046-.49.14-.748.187-5.514 1.215-11.051 2.243-16.612 3.2-2.78.468-5.56.935-8.341 1.38l-.514.07-.257.046c-.07.023-.14.07-.14.14v.117l.046.117.094.257.163.49.678 2.01.163.49.094.258c.023.07.093.116.163.116.328-.046.701-.093 1.029-.14l2.102-.28 16.753-2.407 8.364-1.215 2.08-.303c.046-.024.093-.047.093-.094v-.257l.023-.537.047-1.052.07-2.103.047-1.051.023-.537c0-.117 0-.14-.023-.164-.093-.047-.14-.047-.164-.047zm-.07-.233a.43.43 0 0 1 .374.117c.047.046.07.116.07.187v.163l-.023.537-.047 1.052-.093 2.103L36.035 15l-.023.537v.28c-.024.118-.117.234-.234.258l-2.103.303-8.388 1.145-16.752 2.314c-.701.116-1.402.21-2.103.303l-1.051.14c-.094 0-.21-.07-.234-.163l-.117-.257-.163-.49-.701-2.01-.164-.49-.093-.258-.047-.117c-.023-.046-.023-.093 0-.163a.316.316 0 0 1 .21-.21l.257-.047.514-.07c2.78-.444 5.561-.911 8.341-1.379 5.561-.981 11.099-2.01 16.613-3.247.257-.07.514-.117.747-.164.257-.047.514-.117.748-.164.514-.116 1.005-.257 1.495-.373a15.61 15.61 0 0 0 1.496-.398l.747-.233.374-.117c.07-.023.117-.047.187-.07l.21-.07z" fill="#B85345"/><path d="M34.066 20.888a76.875 76.875 0 0 0-1.846-.21l1.846.21c1.728.233 4.018.677 5.677 1.378.397.164.981 0 .397-.233a65.013 65.013 0 0 0-6.075-1.145z" fill="#F2C129"/><path d="M34.066 20.888a76.875 76.875 0 0 0-1.846-.21l1.846.21zm0 0c1.728.233 4.018.677 5.677 1.378.397.164.981 0 .397-.233a65.013 65.013 0 0 0-6.075-1.145z" stroke="#D9E491" stroke-width=".5" stroke-miterlimit="10"/><path d="M42.92 15.864c-6.588 3.108-10.7 3.669-10.7 3.669 2.476-.28 10.374-2.92 11.238-3.388.56-.28-.14-.467-.537-.28z" fill="#F2C129" stroke="#ECE854" stroke-width=".5" stroke-miterlimit="10"/><path d="M39.182 9.556l.467.654.771-.233-.467.63.467.655-.747-.257-.468.63v-.794l-.747-.257.77-.233-.046-.795z" fill="#F2C129" stroke="#A3C858" stroke-width=".5" stroke-miterlimit="10" stroke-linecap="round" stroke-linejoin="round"/><path d="M46.332 16.565l-.024.468.444.187-.467.116-.023.468-.257-.397-.468.116.304-.373-.257-.398.444.187.304-.374z" fill="#F2C129" stroke="#D3DD4E" stroke-width=".5" stroke-miterlimit="10" stroke-linejoin="round"/><path d="M42.57 20.654l.397.608.701-.187-.444.56.398.608-.678-.257-.444.56.023-.724-.677-.257.7-.187.024-.724z" fill="#ADDC26" stroke="#DFDD4B" stroke-width=".5" stroke-miterlimit="10" stroke-linejoin="round"/><path d="M43.271 13.668l.023-.233-.21-.094.21-.047.024-.233.117.187.21-.047-.14.163.117.187-.21-.093-.14.21z" fill="#F2C129" stroke="#DDE14C" stroke-width=".25" stroke-miterlimit="10" stroke-linejoin="round"/><path d="M67.304 33.264c-2.208 0-3.896-.52-5.064-1.56-1.168-1.04-1.752-2.56-1.752-4.56v-5.112c0-2.016.576-3.536 1.728-4.56 1.168-1.024 2.88-1.536 5.136-1.536 1.44 0 2.664.216 3.672.648a6.018 6.018 0 0 1 2.496 1.968l-1.68 1.272c-.544-.704-1.176-1.224-1.896-1.56-.704-.352-1.576-.528-2.616-.528-3.04 0-4.56 1.432-4.56 4.296v5.112c0 2.88 1.52 4.32 4.56 4.32 1.328 0 2.368-.248 3.12-.744.768-.496 1.152-1.184 1.152-2.064v-1.272c0-.64-.168-1.128-.504-1.464-.32-.336-.8-.504-1.44-.504h-2.832v-1.8h3.408c1.216 0 2.12.288 2.712.864.592.576.888 1.456.888 2.64v1.68c0 1.376-.592 2.464-1.776 3.264-1.168.8-2.752 1.2-4.752 1.2zM82.135 33c-1.952 0-3.384-.424-4.296-1.272-.912-.848-1.368-2.12-1.368-3.816v-6.624c0-1.696.456-2.968 1.368-3.816.912-.848 2.344-1.272 4.296-1.272h5.736V18h-5.736c-1.168 0-2.024.272-2.568.816-.544.528-.816 1.352-.816 2.472v2.4h7.944v1.824h-7.944v2.4c0 1.12.272 1.952.816 2.496.544.528 1.4.792 2.568.792h5.832V33h-5.832zM94.93 18h-5.304v-1.8h12.912V18H97.21v15h-2.28V18z" fill="#FF2C00"/><path d="M110.308 33c-1.904 0-3.304-.424-4.2-1.272-.88-.848-1.32-2.12-1.32-3.816V16.2h2.28v11.712c0 1.12.264 1.952.792 2.496.528.528 1.344.792 2.448.792h5.4V33h-5.4zm14.201.288c-2.048 0-3.64-.44-4.776-1.32-1.12-.896-1.68-2.12-1.68-3.672V16.2h2.28v12.096c0 1.008.36 1.792 1.08 2.352.736.544 1.768.816 3.096.816s2.352-.272 3.072-.816c.736-.544 1.104-1.328 1.104-2.352V16.2h2.28v12.096c0 1.552-.568 2.776-1.704 3.672-1.12.88-2.704 1.32-4.752 1.32zm16.366-.024c-2.224 0-3.92-.512-5.088-1.536-1.168-1.04-1.752-2.568-1.752-4.584v-5.112c0-1.984.576-3.496 1.728-4.536 1.152-1.04 2.808-1.56 4.968-1.56 1.456 0 2.68.232 3.672.696.992.464 1.8 1.176 2.424 2.136l-1.632 1.152c-.544-.752-1.16-1.304-1.848-1.656-.688-.352-1.544-.528-2.568-.528-2.976 0-4.464 1.432-4.464 4.296v5.112c0 2.88 1.52 4.32 4.56 4.32 1.088 0 1.984-.184 2.688-.552.704-.368 1.32-.944 1.848-1.728l1.608 1.224c-.736 1.008-1.576 1.736-2.52 2.184-.928.448-2.136.672-3.624.672zm16.243-10.56c1.136.192 2.008.624 2.616 1.296.608.672 1.152 1.744 1.632 3.216L163.118 33h-2.28l-1.704-5.568c-.224-.736-.472-1.304-.744-1.704a2.61 2.61 0 0 0-1.056-.936c-.432-.224-1.024-.368-1.776-.432l-3.312 3.504V33h-2.28V16.2h2.28v8.88l8.28-8.88h2.736l-6.144 6.504zm11.495 3.216l-5.664-9.72h2.52l4.344 7.608 4.272-7.608h2.544l-5.736 9.72V33h-2.28v-7.08z" fill="#002FA7"/><defs><linearGradient id="paint0_linear" x1="12.707" y1="26.198" x2="26.258" y2="32.623" gradientUnits="userSpaceOnUse"><stop stop-color="#F96535"/><stop offset="1" stop-color="#FF2C00"/></linearGradient><linearGradient id="paint1_linear" x1="7.501" y1="30.779" x2="33.114" y2="30.779" gradientUnits="userSpaceOnUse"><stop stop-color="#F96535"/><stop offset="1" stop-color="#FF3E00"/></linearGradient><linearGradient id="paint2_linear" x1="3.89" y1="15.066" x2="36.124" y2="15.066" gradientUnits="userSpaceOnUse"><stop stop-color="#DA734E"/><stop offset="1" stop-color="#FF2C00"/></linearGradient></defs></svg>