<svg xmlns="http://www.w3.org/2000/svg" viewBox="0 0 43.75 43.69"><defs><style>.cls-1{fill:#fff;}</style></defs><title>icon-3</title><g id="Layer_2" data-name="Layer 2"><g id="Layer_2-2" data-name="Layer 2"><path class="cls-1" d="M42.71,0H17.15a1,1,0,0,0-1,1V16.11H1a1,1,0,0,0-1,1V36.32a1,1,0,0,0,1,1H3.77v5.28a1,1,0,0,0,1.78.74l6-6h15a1,1,0,0,0,1-1V21.25h4.54l6,6A1,1,0,0,0,40,26.53V21.25h2.73a1,1,0,0,0,1-1V1A1,1,0,0,0,42.71,0ZM25.55,35.27H11.14a1,1,0,0,0-.74.31L5.86,40.12v-3.8a1,1,0,0,0-1-1H2.09V18.2H15.8l.32,2.17v0l0,.09,0,.1,0,.08.05.09,0,.07.07.08.06.06.08.07.07,0,.1.05.07,0,.12,0,.07,0,.2,0h8.4ZM41.66,19.17H38.94a1,1,0,0,0-1,1V24l-4.54-4.54a1,1,0,0,0-.74-.31H18.2V2.09H41.66Z"/><path class="cls-1" d="M22.45,7.2h15a1,1,0,1,0,0-2.09h-15a1,1,0,0,0,0,2.09Z"/><path class="cls-1" d="M22.45,11.65h15a1,1,0,1,0,0-2.09h-15a1,1,0,0,0,0,2.09Z"/><path class="cls-1" d="M22.45,16.11h15a1,1,0,1,0,0-2.09h-15a1,1,0,0,0,0,2.09Z"/></g></g></svg>