<svg xmlns="http://www.w3.org/2000/svg" viewBox="0 0 38 38"><defs><style>.cls-1{fill:none;stroke:#4c6c91;stroke-miterlimit:10;}.cls-2{fill:#4c6c91;}</style></defs><title>icon-vk</title><g id="Layer_2" data-name="Layer 2"><g id="Layer_1-2" data-name="Layer 1"><circle class="cls-1" cx="19" cy="19" r="18.5"/><path class="cls-2" d="M25.92,23.13l-.05-.1a8.13,8.13,0,0,0-1.56-1.8l0,0h0q-.52-.5-.66-.67a.63.63,0,0,1-.11-.66,6.17,6.17,0,0,1,.73-1.07l.53-.69q1.41-1.88,1.22-2.4l0-.08a.48.48,0,0,0-.25-.13,1.29,1.29,0,0,0-.52,0l-2.35,0a.31.31,0,0,0-.16,0l-.11,0,0,0,0,0-.09.09a.56.56,0,0,0-.08.14,13.33,13.33,0,0,1-.87,1.84q-.3.51-.56.88a4.22,4.22,0,0,1-.42.55,3,3,0,0,1-.31.28q-.14.11-.21.09l-.14,0a.54.54,0,0,1-.18-.2.9.9,0,0,1-.09-.32q0-.19,0-.33t0-.39q0-.25,0-.34,0-.31,0-.67t0-.58q0-.21,0-.45a1.89,1.89,0,0,0,0-.37,1.27,1.27,0,0,0-.09-.26.44.44,0,0,0-.17-.2.94.94,0,0,0-.27-.11,5.43,5.43,0,0,0-1.1-.11,5.36,5.36,0,0,0-2,.2,1.1,1.1,0,0,0-.31.24q-.15.18,0,.2a1,1,0,0,1,.69.35l0,.1a1.56,1.56,0,0,1,.11.38,3.79,3.79,0,0,1,.07.6,6.36,6.36,0,0,1,0,1q0,.42-.08.66a1.32,1.32,0,0,1-.11.38l-.1.18,0,0a.61.61,0,0,1-.22,0,.52.52,0,0,1-.28-.11,2,2,0,0,1-.34-.31,4.2,4.2,0,0,1-.4-.56q-.22-.36-.46-.85l-.13-.24L14,16.7q-.21-.44-.38-.85a.54.54,0,0,0-.2-.26l0,0-.13-.07-.19-.05-2.24,0a.57.57,0,0,0-.47.16l0,0a.26.26,0,0,0,0,.13.65.65,0,0,0,0,.22q.49,1.15,1.07,2.22t1,1.72q.42.65.87,1.23t.58.74l.22.24.2.2a4.84,4.84,0,0,0,.58.47,9.82,9.82,0,0,0,.84.54,4.56,4.56,0,0,0,1.07.43A3.71,3.71,0,0,0,18,24h.94a.65.65,0,0,0,.43-.18l0,0a.54.54,0,0,0,.06-.15.83.83,0,0,0,0-.22,2.69,2.69,0,0,1,.05-.63,1.66,1.66,0,0,1,.14-.42,1,1,0,0,1,.18-.24l.14-.12.07,0a.52.52,0,0,1,.46.13,2.71,2.71,0,0,1,.5.47q.23.28.56.63a3.84,3.84,0,0,0,.57.52l.16.1a2,2,0,0,0,.42.18.92.92,0,0,0,.46,0l2.09,0a1,1,0,0,0,.48-.1.4.4,0,0,0,.2-.22.63.63,0,0,0,0-.28A1,1,0,0,0,25.92,23.13Z"/></g></g></svg>