<svg xmlns="http://www.w3.org/2000/svg" viewBox="0 0 44.17 44.17"><defs><style>.cls-1{fill:#fff;}</style></defs><title>icon-4</title><g id="Layer_2" data-name="Layer 2"><g id="Layer_2-2" data-name="Layer 2"><path class="cls-1" d="M22.08,28.39a6.31,6.31,0,1,1,6.31-6.31A6.32,6.32,0,0,1,22.08,28.39Zm0-10.52a4.21,4.21,0,1,0,4.21,4.21A4.21,4.21,0,0,0,22.08,17.88Z"/><path class="cls-1" d="M26.35,44.17H17.82a1.05,1.05,0,0,1-1.05-1.05V39.4a18,18,0,0,1-3.16-1.32L11,40.71a1.05,1.05,0,0,1-1.49,0l-6-6a1.05,1.05,0,0,1,0-1.49l2.63-2.63A18,18,0,0,1,4.77,27.4H1.05A1.05,1.05,0,0,1,0,26.35V17.82a1.05,1.05,0,0,1,1.05-1.05H4.77A18,18,0,0,1,6.09,13.6L3.45,11a1.05,1.05,0,0,1,0-1.49l6-6a1.05,1.05,0,0,1,1.49,0L13.6,6.09a18,18,0,0,1,3.16-1.32V1.05A1.05,1.05,0,0,1,17.82,0h8.53A1.05,1.05,0,0,1,27.4,1.05V4.77a18,18,0,0,1,3.16,1.32L33.2,3.45a1.05,1.05,0,0,1,1.49,0l6,6a1.05,1.05,0,0,1,0,1.49L38.08,13.6a18,18,0,0,1,1.32,3.16h3.72a1.05,1.05,0,0,1,1.05,1.05v8.53a1.05,1.05,0,0,1-1.05,1.05H39.4a18,18,0,0,1-1.32,3.16l2.63,2.63a1.05,1.05,0,0,1,0,1.49l-6,6a1.05,1.05,0,0,1-1.49,0l-2.63-2.63A18,18,0,0,1,27.4,39.4v3.72A1.05,1.05,0,0,1,26.35,44.17Zm-7.48-2.1H25.3V38.6a1.05,1.05,0,0,1,.79-1,15.9,15.9,0,0,0,4.12-1.71,1.05,1.05,0,0,1,1.28.16l2.45,2.45,4.54-4.54L36,31.49a1.05,1.05,0,0,1-.16-1.28,15.91,15.91,0,0,0,1.71-4.12,1.05,1.05,0,0,1,1-.79h3.47V18.87H38.6a1.05,1.05,0,0,1-1-.79A15.91,15.91,0,0,0,35.87,14,1.05,1.05,0,0,1,36,12.68l2.45-2.45L33.94,5.68,31.49,8.14a1.05,1.05,0,0,1-1.28.16,15.9,15.9,0,0,0-4.12-1.71,1.05,1.05,0,0,1-.79-1V2.1H18.87V5.57a1.05,1.05,0,0,1-.79,1A15.9,15.9,0,0,0,14,8.3a1.05,1.05,0,0,1-1.28-.16L10.23,5.68,5.68,10.23l2.45,2.45A1.05,1.05,0,0,1,8.3,14a15.89,15.89,0,0,0-1.71,4.12,1.05,1.05,0,0,1-1,.79H2.1V25.3H5.57a1.05,1.05,0,0,1,1,.79A15.89,15.89,0,0,0,8.3,30.21a1.05,1.05,0,0,1-.16,1.28L5.68,33.94l4.54,4.54L12.68,36A1.05,1.05,0,0,1,14,35.87a15.9,15.9,0,0,0,4.12,1.71,1.05,1.05,0,0,1,.79,1Z"/></g></g></svg>