<svg xmlns="http://www.w3.org/2000/svg" viewBox="0 0 43.47 30.94"><defs><style>.cls-1{fill:#fff;}</style></defs><title>icon-1</title><g id="Layer_2" data-name="Layer 2"><g id="Layer_2-2" data-name="Layer 2"><path class="cls-1" d="M42.85,12.18,37.71,10l5.14-2.21a1,1,0,0,0,0-1.89L29.56.09a1,1,0,0,0-.82,0l-7,3-7-3a1,1,0,0,0-.82,0L.62,5.86a1,1,0,0,0,0,1.89L5.83,10,.75,12.18a1,1,0,0,0,0,1.89L7.47,17v7.13h0s0,0,0,.06a1,1,0,0,0,0,.14s0,.06,0,.1l0,.1,0,.09,0,.09.06.08.07.08.08.07.08.06.13.07,0,0h0l13.29,5.77a1,1,0,0,0,.82,0L35.5,25.08h0l0,0,.13-.07.08-.06.08-.07.07-.08L36,24.7l0-.09,0-.09,0-.1s0-.06,0-.1a1,1,0,0,0,0-.14s0,0,0-.06h0V17l6.73-2.92a1,1,0,0,0,0-1.89Zm-21,2.43h0L11.09,10,21.8,5.32h0L32.51,10l-7.18,3.12ZM29.14,2.16,39.84,6.8l-4.74,2L31.74,7.38,24.4,4.2Zm-14.81,0,4.74,2L8.38,8.84l-4.74-2ZM8.5,11.09l3.79,1.64,6.91,3-4.74,2L8.9,15.36h0L3.76,13.13ZM14,19.85a1,1,0,0,0,.82,0l5.78-2.49V28.28L9.53,23.46V17.89Zm20,3.61L22.71,28.39V17.25l6,2.59a1,1,0,0,0,.82,0l4.51-2Zm.63-8.09h0l-5.55,2.41-4.74-2L30.8,13l4.29-1.86,4.74,2Z"/></g></g></svg>