<svg xmlns="http://www.w3.org/2000/svg" viewBox="0 0 38 38"><defs><style>.cls-1{fill:none;stroke:#2ea5d9;stroke-miterlimit:10;}.cls-2{fill:#2ea5d9;}</style></defs><title>icon-tele</title><g id="Layer_2" data-name="Layer 2"><g id="Layer_1-2" data-name="Layer 1"><circle class="cls-1" cx="19" cy="19" r="18.5"/><path class="cls-2" d="M22.08,27a.59.59,0,0,1-.33-.1L18,24.32l-2,1.46a.59.59,0,0,1-.92-.33L14,21.6l-3.63-1.39a.59.59,0,0,1,0-1.11l13.8-5.49a.59.59,0,0,1,.2,0h.07a.59.59,0,0,1,.38.17l0,0a.59.59,0,0,1,.15.35.6.6,0,0,1,0,.09v.07L22.66,26.5a.59.59,0,0,1-.58.48ZM18.3,23.11l3.36,2.28,1.81-9.51-6.55,6.3,1.36.92Zm-2.8-.51.45,1.7,1-.7-1.27-.86A.59.59,0,0,1,15.5,22.61Zm-3.28-3,2.49,1a.59.59,0,0,1,.36.4l.32,1.2a.59.59,0,0,1,.18-.37l6.24-6Z"/></g></g></svg>