<svg width="39" height="47" viewBox="0 0 39 47" fill="none" xmlns="http://www.w3.org/2000/svg">
<path d="M0.942017 38.0936C0.942017 43.8013 10.4939 46.7839 19.971 46.7839C29.4481 46.7839 39 43.8013 39 38.0936C39 34.7426 35.693 32.3303 31.0492 30.9122C30.0516 32.3203 29.0541 33.6122 28.0565 34.778C32.2962 35.7419 34.5408 37.3013 34.5408 38.0936C34.5408 39.2947 29.4431 42.2419 20.0009 42.2419C10.5588 42.2419 5.46109 39.2997 5.46109 38.0936C5.46109 37.2962 7.6907 35.7419 11.9454 34.778C10.9478 33.6122 9.9253 32.3152 8.95265 30.9122C4.24403 32.3354 0.942017 34.7426 0.942017 38.0936Z" fill="#0092FF"/>
<path d="M17.891 35.328C18.4495 35.8768 19.1974 36.1838 19.976 36.1838C20.7545 36.1838 21.5024 35.8768 22.0609 35.328C25.7919 31.6137 33.224 23.09 33.224 14.0515C33.22 10.4978 31.822 7.09112 29.337 4.57975C26.852 2.06837 23.4833 0.657728 19.971 0.65773C19.6883 0.65773 19.4024 0.666141 19.1131 0.682963C15.7355 0.929851 12.5767 2.46544 10.2756 4.97911C7.9745 7.49278 6.7029 10.7969 6.71803 14.2231C6.80781 23.2161 14.18 31.6541 17.891 35.328ZM14.6688 14.0616C14.6688 13.0006 14.9798 11.9634 15.5624 11.0812C16.145 10.199 16.9731 9.51138 17.9419 9.10535C18.9108 8.69932 19.9769 8.59309 21.0054 8.80008C22.0339 9.00707 22.9787 9.518 23.7202 10.2682C24.4617 11.0185 24.9667 11.9744 25.1713 13.015C25.3759 14.0556 25.2709 15.1342 24.8696 16.1145C24.4683 17.0947 23.7887 17.9326 22.9167 18.522C22.0448 19.1115 21.0197 19.4261 19.971 19.4261C18.5648 19.4261 17.2161 18.8609 16.2218 17.8549C15.2274 16.8488 14.6688 15.4843 14.6688 14.0616Z" fill="#0092FF"/>
</svg>
