<svg width="9" height="4" viewBox="0 0 9 4" fill="none" xmlns="http://www.w3.org/2000/svg">
<path d="M1.40546 0.0254673C1.51002 0.0253939 1.61157 0.062761 1.69386 0.131584L4.93945 2.83977L8.18504 0.131666C8.28295 0.0499733 8.40726 0.0131238 8.53063 0.0292254C8.65401 0.045327 8.76633 0.11306 8.8429 0.217525C8.91947 0.321989 8.954 0.454627 8.93891 0.586261C8.92382 0.717894 8.86034 0.83774 8.76243 0.919433L5.22814 3.86833C5.14569 3.93707 5.04407 3.97441 4.93944 3.97441C4.83481 3.97441 4.73318 3.93707 4.65074 3.86833L1.11646 0.91935C1.03959 0.85522 0.983403 0.767088 0.955733 0.667249C0.928063 0.567411 0.930294 0.460846 0.962113 0.362425C0.993932 0.264004 1.05375 0.178635 1.13323 0.118229C1.2127 0.0578236 1.30787 0.0253951 1.40545 0.0254673L1.40546 0.0254673Z" fill="#4A5B6D"/>
</svg>
