<svg width="216" height="50" viewBox="0 0 216 50" fill="none" xmlns="http://www.w3.org/2000/svg">
<path d="M9.60284 38.1776C9.36919 30.5841 8.22433 24.3692 7.68695 22.1963H32.9206C32.5 29.7196 30.444 36.6589 29.4159 39.3224C29.3692 39.4159 29.2991 39.4626 29.1823 39.4626L9.81312 38.4112C9.6963 38.3878 9.60284 38.2944 9.60284 38.1776Z" fill="url(#paint0_linear)"/>
<path d="M9.57946 38.1775C9.50937 36.8458 9.43927 35.4906 9.32245 34.1589C9.20563 32.8271 9.06544 31.4953 8.90189 30.1635C8.73834 28.8318 8.55142 27.5 8.31778 26.1916C8.20096 25.5374 8.08413 24.8598 7.94395 24.2056C7.87385 23.8785 7.80376 23.5514 7.73367 23.2243L7.61684 22.7336L7.54675 22.5C7.54675 22.4065 7.47666 22.3598 7.52339 22.243C7.54675 22.1962 7.59348 22.1495 7.64021 22.1028C7.7103 22.0561 7.7804 22.0794 7.82713 22.0794H8.01404H8.41124H9.20563H10.771L13.9253 22.1028L20.2337 22.1261L32.8505 22.1962C32.8738 22.1962 32.8738 22.1962 32.8738 22.2196C32.6869 25.3504 32.243 28.4579 31.6122 31.5187C31.2851 33.0607 30.9112 34.5794 30.4673 36.0747C30.257 36.8224 30.0234 37.5701 29.7664 38.3177L29.5795 38.8785L29.486 39.1589L29.4393 39.299L29.4159 39.3691C29.4159 39.3925 29.3925 39.4159 29.3692 39.4392C29.2991 39.5327 29.1355 39.5327 29.0654 39.5327L28.7617 39.5093L28.1776 39.486L18.8084 38.9486L14.1122 38.6916L11.7757 38.5514L10.6075 38.4813L10.0234 38.4579C9.92993 38.4579 9.83647 38.4579 9.71965 38.4346C9.64955 38.3878 9.57946 38.2944 9.57946 38.1775ZM9.62619 38.1775C9.62619 38.271 9.69628 38.3411 9.76638 38.3645C9.85983 38.3878 9.95329 38.3878 10.0468 38.3878L10.6309 38.4112L11.7991 38.4813L14.1355 38.6215L18.8318 38.8785L28.2243 39.3925L28.8084 39.4159L29.1122 39.4392C29.1589 39.4392 29.2056 39.4392 29.2524 39.4392C29.2991 39.4159 29.3224 39.3925 29.3458 39.3691C29.3458 39.3458 29.3692 39.3458 29.3692 39.3224L29.3925 39.2523L29.4393 39.1121L29.5327 38.8318L29.7196 38.271C29.9767 37.5233 30.2103 36.7757 30.4206 36.028C30.8645 34.5327 31.2383 33.014 31.5654 31.4719C32.2196 28.4112 32.6869 25.3037 32.8738 22.1729L32.8972 22.1962L20.2804 22.2663L13.972 22.2897L10.8178 22.3131H9.25236H8.45797H8.06077H7.87385C7.80376 22.3131 7.73367 22.3364 7.68694 22.2897L7.80376 22.1495C7.89722 22.2196 7.87385 22.3131 7.89722 22.3832L7.94395 22.6402L8.03741 23.1308C8.1075 23.4579 8.17759 23.785 8.22432 24.1121C8.34114 24.7663 8.45797 25.4439 8.55142 26.0981C8.7617 27.4299 8.92526 28.7617 9.06544 30.0934C9.39255 32.8037 9.57946 35.4906 9.62619 38.1775Z" fill="url(#paint1_linear)"/>
<path d="M19.1594 11.005C16.6361 8.97227 10.7249 6.65919 11.5426 12.0797C12.4538 18.0611 12.7576 7.82741 19.1594 11.005Z" fill="#002FA7"/>
<path d="M19.0654 10.9579C19.0187 10.9579 18.9954 10.9579 18.9486 10.9346C18.9253 10.9112 18.9019 10.8878 18.8552 10.8411C18.8318 10.7944 18.7617 10.7944 18.715 10.7476L18.5748 10.6542C18.3879 10.5374 18.201 10.4205 18.014 10.3037C17.6402 10.0934 17.243 9.8598 16.8458 9.67288C16.0514 9.29905 15.2103 8.97195 14.3458 8.83176C13.9019 8.76167 13.458 8.76167 13.0374 8.85513C12.6168 8.94859 12.2196 9.18223 11.9626 9.5327C11.7056 9.88316 11.5888 10.3271 11.5421 10.771C11.5187 11.2149 11.5421 11.6589 11.6122 12.1028C11.6823 12.5467 11.7524 12.9906 11.8692 13.4112C11.8925 13.528 11.9393 13.6215 11.9626 13.7149C12.0094 13.8084 12.0561 13.9252 12.1262 13.9486C12.1963 13.9953 12.2664 13.9252 12.3598 13.8551C12.4299 13.785 12.5 13.6916 12.5701 13.5981C13.0608 12.8738 13.5281 12.0794 14.1823 11.4486C14.8131 10.8177 15.6776 10.3505 16.6122 10.3037C17.0795 10.2804 17.5234 10.3271 17.9673 10.4439C18.1776 10.4906 18.4112 10.5607 18.6215 10.6542L18.9253 10.771C18.972 10.7944 18.972 10.7944 18.9954 10.8411C18.9954 10.8645 19.0187 10.9112 19.0654 10.9579ZM19.2524 11.0747C19.1823 11.0747 19.1122 11.0747 19.0421 11.0514C18.9486 11.028 18.8785 11.0047 18.8084 10.9813L18.5047 10.8645C18.2944 10.7944 18.0841 10.7009 17.8739 10.6542C17.4533 10.5374 17.0094 10.4906 16.5888 10.4906C15.7243 10.5374 14.9066 10.9346 14.2757 11.542C13.6215 12.1495 13.1776 12.9205 12.6636 13.6448C12.5935 13.7383 12.5234 13.8318 12.4533 13.9018C12.4066 13.9486 12.3598 13.9719 12.3131 14.0187C12.2664 14.042 12.1729 14.0654 12.1028 14.0187C11.9626 13.9486 11.9393 13.8318 11.8925 13.7149C11.8458 13.5981 11.8225 13.5047 11.7757 13.3878C11.6589 12.9439 11.5888 12.5 11.5187 12.0794C11.4486 11.6589 11.4019 11.1916 11.4486 10.7476C11.4953 10.3037 11.6122 9.83643 11.8925 9.48597C12.1729 9.11214 12.5935 8.87849 13.014 8.78503C13.458 8.69158 13.9019 8.69158 14.3692 8.73831C15.257 8.85513 16.1215 9.15886 16.9393 9.5327C17.3365 9.71961 17.7337 9.92989 18.1075 10.1869C18.2944 10.3037 18.4813 10.4439 18.6449 10.5841L18.7851 10.6776C18.8318 10.7009 18.8552 10.771 18.9253 10.771C18.972 10.7944 19.0421 10.8177 19.1122 10.8878C19.1589 10.9579 19.2056 11.028 19.2524 11.0747Z" fill="#5D6AAE"/>
<path d="M19.7428 11.5421C19.4858 3.9486 29.6961 -1.61215 28.3643 10.1636C27.8737 14.7196 29.112 -0.280371 19.7428 11.5421Z" fill="#002FA7"/>
<path d="M19.7196 11.6589C19.6962 11.472 19.6729 11.2617 19.6729 11.0514C19.6729 10.8411 19.7196 10.6776 19.7429 10.514C19.7897 10.1636 19.8598 9.83647 19.9299 9.486C20.0934 8.80843 20.3271 8.15422 20.6074 7.52338C21.1915 6.28506 22.0327 5.11684 23.1308 4.25235C23.6915 3.83179 24.299 3.48133 25 3.31777C25.1869 3.29441 25.3504 3.24768 25.5373 3.24768C25.6308 3.24768 25.7243 3.24768 25.8177 3.24768L26.0981 3.27105L26.2383 3.29441L26.3785 3.34114L26.6355 3.41123C26.7289 3.45796 26.799 3.48133 26.8691 3.52805C26.9392 3.57478 27.0327 3.59815 27.1028 3.66824C27.7102 4.0888 28.0607 4.74301 28.2944 5.42058C28.4112 5.74768 28.4813 6.09815 28.5514 6.44862C28.5747 6.61217 28.5981 6.79908 28.6215 6.96263C28.6448 7.12619 28.6682 7.3131 28.6682 7.47665C28.6915 7.82712 28.6915 8.17759 28.6915 8.52805L28.6682 9.04207L28.6215 9.55609C28.5981 9.90656 28.5747 10.257 28.528 10.5841C28.528 10.6776 28.5046 10.7477 28.4813 10.8411C28.4813 10.8879 28.4579 10.9346 28.4579 10.9813C28.4579 11.0047 28.4579 11.0047 28.4345 11.0281C28.4345 11.0281 28.4112 11.0514 28.4112 11.0748C28.4112 11.0981 28.3878 11.0981 28.3644 11.1215C28.3644 11.1215 28.2944 11.1682 28.2476 11.1449C28.2243 11.1449 28.1542 11.1215 28.1542 11.0981L28.1308 11.0748C28.1308 11.0514 28.1074 11.0514 28.1074 11.0281C28.1074 11.0047 28.0841 11.0047 28.0841 10.9813C28.0373 10.7944 28.014 10.6309 27.9906 10.4673C27.8738 9.78974 27.7102 9.13553 27.4532 8.50469C27.1962 7.89721 26.799 7.3131 26.1915 7.07946C25.8878 6.96263 25.5607 6.96263 25.257 7.00936C24.9299 7.07946 24.6261 7.19628 24.3224 7.33647C23.7383 7.6402 23.1775 8.06076 22.6635 8.52805C22.1495 8.97198 21.6588 9.46263 21.2149 9.97665C20.9813 10.2337 20.7476 10.4907 20.5373 10.7477L20.1635 11.215C20.1168 11.2851 20.07 11.3318 19.9766 11.4486C19.9065 11.5187 19.7897 11.5888 19.7196 11.6589ZM19.7897 11.4253C19.813 11.3552 19.813 11.2851 19.8364 11.2383C19.8598 11.1916 19.9299 11.1215 19.9766 11.0514L20.3037 10.6542C20.514 10.3972 20.7476 10.1168 20.9813 9.85983C21.4486 9.34581 21.9158 8.83179 22.4532 8.3645C22.9672 7.89721 23.528 7.45329 24.1588 7.12619C24.4626 6.96263 24.813 6.82245 25.1635 6.75235C25.514 6.68226 25.9112 6.68226 26.2616 6.82245C26.6121 6.96263 26.9158 7.19628 27.1495 7.47665C27.3831 7.75703 27.5467 8.08413 27.6869 8.41123C27.9672 9.06544 28.1308 9.74301 28.2476 10.4439C28.271 10.6075 28.2944 10.7944 28.3411 10.9346V10.958L28.3177 10.9346C28.3177 10.9346 28.271 10.8879 28.2476 10.9112C28.2243 10.9112 28.1542 10.9346 28.1542 10.9346L28.1308 10.958V10.9346C28.1308 10.9112 28.1542 10.8645 28.1542 10.8178L28.2009 10.5608C28.2476 10.2103 28.271 9.88319 28.3177 9.53273L28.3644 9.01871L28.3878 8.50469C28.4112 8.15422 28.3878 7.82712 28.3878 7.47665C28.3878 7.3131 28.3644 7.12619 28.3411 6.96263C28.3177 6.79908 28.3177 6.63553 28.271 6.44862C28.2009 6.12151 28.1542 5.77105 28.0373 5.46731C27.8271 4.83647 27.4766 4.22899 26.9626 3.83179C26.4486 3.4346 25.7243 3.3645 25.0934 3.48133C24.4392 3.62151 23.8084 3.90189 23.2476 4.29908C22.1261 5.09348 21.2383 6.21497 20.6542 7.45329C20.3738 8.08413 20.1401 8.73833 20 9.4159C19.9532 9.76637 19.8831 10.0935 19.8831 10.4439C19.8831 10.6075 19.8598 10.7944 19.8831 10.9346C19.8364 11.1449 19.813 11.2851 19.7897 11.4253Z" fill="#5D6AAE"/>
<path d="M35.8246 9.90655C26.8526 12.5467 7.3199 15.6776 4.07224 16.1449C3.93205 16.1682 3.8386 16.3084 3.88532 16.4486L5.12364 20.0701C5.17037 20.1869 5.26383 20.2337 5.38065 20.2337L35.6844 15.958C35.8012 15.9346 35.8713 15.8411 35.8947 15.7243L36.1283 10.1168C36.1283 9.97665 35.9881 9.85982 35.8246 9.90655Z" fill="url(#paint2_linear)"/>
<path d="M35.8714 10.0234L35.6845 10.0935C35.6144 10.0935 35.5677 10.1168 35.4976 10.1402L35.1237 10.2337L34.3761 10.3972C33.8621 10.514 33.3714 10.6309 32.8808 10.771C32.6237 10.8411 32.3901 10.9112 32.1331 10.9813C31.8761 11.0514 31.6191 11.0748 31.3854 11.1449C31.1284 11.215 30.8714 11.2617 30.6378 11.3318C30.3808 11.3785 30.1471 11.472 29.8901 11.5187C24.3761 12.7337 18.8387 13.7617 13.278 14.7196C10.4976 15.1869 7.71721 15.6542 4.93683 16.0982L4.42281 16.1682L4.16581 16.215C4.09571 16.2383 4.02562 16.2851 4.02562 16.3552C4.02562 16.3785 4.02562 16.4253 4.02562 16.472L4.07235 16.5888L4.16581 16.8458L4.32936 17.3365L5.00693 19.3458L5.17048 19.8365L5.26394 20.0935C5.2873 20.1636 5.35739 20.2103 5.42749 20.2103C5.75459 20.1636 6.12842 20.1168 6.45552 20.0701C7.15646 19.9767 7.85739 19.8832 8.55833 19.7897L25.3107 17.3832L33.6751 16.1682L35.7546 15.8645C35.8013 15.8411 35.848 15.8178 35.848 15.7711C35.848 15.7711 35.848 15.7477 35.848 15.7243V15.6542V15.514L35.8714 14.9767L35.9181 13.9253L35.9882 11.8224L36.035 10.771L36.0583 10.2337C36.0583 10.1168 36.0583 10.0935 36.035 10.0701C35.9415 10.0234 35.8948 10.0234 35.8714 10.0234ZM35.8013 9.78974C35.9415 9.76637 36.0817 9.8131 36.1751 9.90656C36.2219 9.95329 36.2452 10.0234 36.2452 10.0935C36.2452 10.1636 36.2452 10.2103 36.2452 10.257L36.2219 10.7944L36.1751 11.8458L36.0817 13.9486L36.035 15L36.0116 15.5374V15.6776V15.7477C36.0116 15.7711 36.0116 15.7944 36.0116 15.8178C35.9882 15.9346 35.8948 16.0514 35.778 16.0748L33.6751 16.3785L25.2873 17.5234L8.53496 19.8365C7.83403 19.9533 7.13309 20.0468 6.43216 20.1402C6.08169 20.1869 5.73123 20.2337 5.38076 20.2804C5.2873 20.2804 5.17048 20.2103 5.14711 20.1168L5.03029 19.8598L4.86674 19.3692L4.16581 17.3598L4.00225 16.8692L3.9088 16.6122L3.86207 16.4953C3.8387 16.4486 3.8387 16.4019 3.86207 16.3318C3.88543 16.2383 3.97889 16.1449 4.07235 16.1215L4.32936 16.0748L4.84338 16.0047C7.62375 15.5608 10.4041 15.0935 13.1845 14.6262C18.7452 13.6449 24.2826 12.6168 29.7966 11.3785C30.0537 11.3084 30.3107 11.2617 30.5443 11.215C30.8013 11.1682 31.0583 11.0981 31.292 11.0514C31.806 10.9346 32.2966 10.7944 32.7873 10.6776C33.3013 10.5608 33.792 10.4439 34.2826 10.2804L35.0303 10.0467L35.4041 9.92992C35.4742 9.90656 35.5209 9.88319 35.591 9.85983L35.8013 9.78974Z" fill="#B85345"/>
<path d="M34.0655 20.8879C33.3179 20.7944 32.687 20.7243 32.2197 20.6776C32.8272 20.7477 33.458 20.8178 34.0655 20.8879C35.7945 21.1215 38.0842 21.5654 39.7431 22.2664C40.1403 22.4299 40.7244 22.2664 40.1403 22.0327C39.0889 21.7757 36.6356 21.2383 34.0655 20.8879Z" fill="#F2C129"/>
<path d="M34.0655 20.8879C33.3179 20.7944 32.687 20.7243 32.2197 20.6776C32.8272 20.7477 33.458 20.8178 34.0655 20.8879ZM34.0655 20.8879C35.7945 21.1215 38.0842 21.5654 39.7431 22.2664C40.1403 22.4299 40.7244 22.2664 40.1403 22.0327C39.0889 21.7757 36.6356 21.2383 34.0655 20.8879Z" stroke="#D9E491" stroke-width="0.5" stroke-miterlimit="10"/>
<path d="M42.9207 15.8645C36.3319 18.972 32.2197 19.5327 32.2197 19.5327C34.6964 19.2523 42.5936 16.6121 43.458 16.1449C44.0188 15.8645 43.3178 15.6776 42.9207 15.8645Z" fill="#F2C129" stroke="#ECE854" stroke-width="0.5" stroke-miterlimit="10"/>
<path d="M39.1821 9.55606L39.6494 10.2103L40.4204 9.97662L39.9531 10.6075L40.4204 11.2617L39.6728 11.0047L39.2055 11.6355V10.8411L38.4578 10.5841L39.2288 10.3505L39.1821 9.55606Z" fill="#F2C129" stroke="#A3C858" stroke-width="0.5" stroke-miterlimit="10" stroke-linecap="round" stroke-linejoin="round"/>
<path d="M46.3318 16.5654L46.3084 17.0327L46.7524 17.2196L46.2851 17.3364L46.2617 17.8037L46.0047 17.4065L45.5374 17.5233L45.8412 17.1495L45.5841 16.7523L46.0281 16.9392L46.3318 16.5654Z" fill="#F2C129" stroke="#D3DD4E" stroke-width="0.5" stroke-miterlimit="10" stroke-linejoin="round"/>
<path d="M42.5701 20.6542L42.9673 21.2617L43.6683 21.0748L43.2243 21.6355L43.6215 22.243L42.944 21.986L42.5 22.5467L42.5234 21.8224L41.8458 21.5654L42.5468 21.3785L42.5701 20.6542Z" fill="#ADDC26" stroke="#DFDD4B" stroke-width="0.5" stroke-miterlimit="10" stroke-linejoin="round"/>
<path d="M43.2711 13.6682L43.2945 13.4346L43.0842 13.3411L43.2945 13.2944L43.3178 13.0608L43.4346 13.2477L43.6449 13.2009L43.5047 13.3645L43.6216 13.5514L43.4113 13.458L43.2711 13.6682Z" fill="#F2C129" stroke="#DDE14C" stroke-width="0.25" stroke-miterlimit="10" stroke-linejoin="round"/>
<path d="M67.304 33.264C65.096 33.264 63.408 32.744 62.24 31.704C61.072 30.664 60.488 29.144 60.488 27.144V22.032C60.488 20.016 61.064 18.496 62.216 17.472C63.384 16.448 65.096 15.936 67.352 15.936C68.792 15.936 70.016 16.152 71.024 16.584C72.032 17.016 72.864 17.672 73.52 18.552L71.84 19.824C71.296 19.12 70.664 18.6 69.944 18.264C69.24 17.912 68.368 17.736 67.328 17.736C64.288 17.736 62.768 19.168 62.768 22.032V27.144C62.768 30.024 64.288 31.464 67.328 31.464C68.656 31.464 69.696 31.216 70.448 30.72C71.216 30.224 71.6 29.536 71.6 28.656V27.384C71.6 26.744 71.432 26.256 71.096 25.92C70.776 25.584 70.296 25.416 69.656 25.416H66.824V23.616H70.232C71.448 23.616 72.352 23.904 72.944 24.48C73.536 25.056 73.832 25.936 73.832 27.12V28.8C73.832 30.176 73.24 31.264 72.056 32.064C70.888 32.864 69.304 33.264 67.304 33.264ZM82.1353 33C80.1833 33 78.7513 32.576 77.8393 31.728C76.9273 30.88 76.4713 29.608 76.4713 27.912V21.288C76.4713 19.592 76.9273 18.32 77.8393 17.472C78.7513 16.624 80.1833 16.2 82.1353 16.2H87.8713V18H82.1353C80.9673 18 80.1113 18.272 79.5673 18.816C79.0233 19.344 78.7513 20.168 78.7513 21.288V23.688H86.6953V25.512H78.7513V27.912C78.7513 29.032 79.0233 29.864 79.5673 30.408C80.1113 30.936 80.9673 31.2 82.1353 31.2H87.9673V33H82.1353ZM94.9286 18H89.6246V16.2H102.537V18H97.2086V33H94.9286V18Z" fill="#FF2C00"/>
<path d="M110.308 33C108.404 33 107.004 32.576 106.108 31.728C105.228 30.88 104.788 29.608 104.788 27.912V16.2H107.068V27.912C107.068 29.032 107.332 29.864 107.86 30.408C108.388 30.936 109.204 31.2 110.308 31.2H115.708V33H110.308ZM124.509 33.288C122.461 33.288 120.869 32.848 119.733 31.968C118.613 31.072 118.053 29.848 118.053 28.296V16.2H120.333V28.296C120.333 29.304 120.693 30.088 121.413 30.648C122.149 31.192 123.181 31.464 124.509 31.464C125.837 31.464 126.861 31.192 127.581 30.648C128.317 30.104 128.685 29.32 128.685 28.296V16.2H130.965V28.296C130.965 29.848 130.397 31.072 129.261 31.968C128.141 32.848 126.557 33.288 124.509 33.288ZM140.875 33.264C138.651 33.264 136.955 32.752 135.787 31.728C134.619 30.688 134.035 29.16 134.035 27.144V22.032C134.035 20.048 134.611 18.536 135.763 17.496C136.915 16.456 138.571 15.936 140.731 15.936C142.187 15.936 143.411 16.168 144.403 16.632C145.395 17.096 146.203 17.808 146.827 18.768L145.195 19.92C144.651 19.168 144.035 18.616 143.347 18.264C142.659 17.912 141.803 17.736 140.779 17.736C137.803 17.736 136.315 19.168 136.315 22.032V27.144C136.315 30.024 137.835 31.464 140.875 31.464C141.963 31.464 142.859 31.28 143.563 30.912C144.267 30.544 144.883 29.968 145.411 29.184L147.019 30.408C146.283 31.416 145.443 32.144 144.499 32.592C143.571 33.04 142.363 33.264 140.875 33.264ZM157.118 22.704C158.254 22.896 159.126 23.328 159.734 24C160.342 24.672 160.886 25.744 161.366 27.216L163.118 33H160.838L159.134 27.432C158.91 26.696 158.662 26.128 158.39 25.728C158.134 25.328 157.782 25.016 157.334 24.792C156.902 24.568 156.31 24.424 155.558 24.36L152.246 27.864V33H149.966V16.2H152.246V25.08L160.526 16.2H163.262L157.118 22.704ZM168.613 25.92L162.949 16.2H165.469L169.813 23.808L174.085 16.2H176.629L170.893 25.92V33H168.613V25.92Z" fill="#002FA7"/>
<defs>
<linearGradient id="paint0_linear" x1="12.7065" y1="26.198" x2="26.2579" y2="32.6232" gradientUnits="userSpaceOnUse">
<stop stop-color="#F96535"/>
<stop offset="1" stop-color="#FF2C00"/>
</linearGradient>
<linearGradient id="paint1_linear" x1="7.50063" y1="30.7795" x2="33.1138" y2="30.7795" gradientUnits="userSpaceOnUse">
<stop stop-color="#F96535"/>
<stop offset="1" stop-color="#FF3E00"/>
</linearGradient>
<linearGradient id="paint2_linear" x1="3.88997" y1="15.0655" x2="36.1245" y2="15.0655" gradientUnits="userSpaceOnUse">
<stop stop-color="#DA734E"/>
<stop offset="1" stop-color="#FF2C00"/>
</linearGradient>
</defs>
</svg>
