<svg xmlns="http://www.w3.org/2000/svg" viewBox="0 0 38 38"><defs><style>.cls-1{fill:none;stroke:#55acee;stroke-miterlimit:10;}.cls-2{fill:#55acee;}</style></defs><title>icon-tw</title><g id="Layer_2" data-name="Layer 2"><g id="Layer_1-2" data-name="Layer 1"><circle class="cls-1" cx="19" cy="19" r="18.5"/><path class="cls-2" d="M26,15.31a5.54,5.54,0,0,1-1.59.44,2.79,2.79,0,0,0,1.22-1.53,5.59,5.59,0,0,1-1.76.67,2.78,2.78,0,0,0-4.73,2.53,7.88,7.88,0,0,1-5.72-2.9,2.78,2.78,0,0,0,.86,3.7A2.77,2.77,0,0,1,13,17.88v0a2.78,2.78,0,0,0,2.23,2.72,2.81,2.81,0,0,1-.73.1,2.66,2.66,0,0,1-.52-.05,2.78,2.78,0,0,0,2.59,1.93,5.57,5.57,0,0,1-3.45,1.19,5.9,5.9,0,0,1-.66,0,7.89,7.89,0,0,0,12.15-6.65v-.36A5.54,5.54,0,0,0,26,15.31Z"/></g></g></svg>