<svg xmlns="http://www.w3.org/2000/svg" viewBox="0 0 40.4 36.71"><defs><style>.cls-1{fill:#fff;}</style></defs><title>icon-2</title><g id="Layer_2" data-name="Layer 2"><g id="Layer_2-2" data-name="Layer 2"><path class="cls-1" d="M32.69,15a1,1,0,0,0-1,1V34.77H1.94V5H26.16a1,1,0,1,0,0-1.94H1A1,1,0,0,0,0,4V35.74a1,1,0,0,0,1,1H32.69a1,1,0,0,0,1-1V16A1,1,0,0,0,32.69,15Z"/><path class="cls-1" d="M40.11.28a1,1,0,0,0-1.37,0L18,21l-6-6a1,1,0,0,0-1.37,1.37l6.71,6.71a1,1,0,0,0,1.37,0l21.4-21.4A1,1,0,0,0,40.11.28Z"/></g></g></svg>